<mxfile host="app.diagrams.net" agent="Mozilla/5.0 (Windows NT 10.0; Win64; x64) AppleWebKit/537.36 (KHTML, like Gecko) Chrome/131.0.0.0 Safari/537.36" version="25.0.3">
  <diagram name="Trang-1" id="k81AlB3OiTma5xJahvzv">
    <mxGraphModel dx="1621" dy="446" grid="1" gridSize="10" guides="1" tooltips="1" connect="1" arrows="1" fold="1" page="1" pageScale="1" pageWidth="827" pageHeight="1169" math="0" shadow="0">
      <root>
        <mxCell id="0" />
        <mxCell id="1" parent="0" />
        <mxCell id="Cyqoco6zOhZ96ME_6kLh-4" value="" style="edgeStyle=orthogonalEdgeStyle;rounded=0;orthogonalLoop=1;jettySize=auto;html=1;" edge="1" parent="1" source="Cyqoco6zOhZ96ME_6kLh-1" target="Cyqoco6zOhZ96ME_6kLh-3">
          <mxGeometry relative="1" as="geometry" />
        </mxCell>
        <mxCell id="Cyqoco6zOhZ96ME_6kLh-1" value="Start" style="ellipse;whiteSpace=wrap;html=1;" vertex="1" parent="1">
          <mxGeometry x="340" y="40" width="120" height="80" as="geometry" />
        </mxCell>
        <mxCell id="Cyqoco6zOhZ96ME_6kLh-6" value="" style="edgeStyle=orthogonalEdgeStyle;rounded=0;orthogonalLoop=1;jettySize=auto;html=1;" edge="1" parent="1" source="Cyqoco6zOhZ96ME_6kLh-3" target="Cyqoco6zOhZ96ME_6kLh-5">
          <mxGeometry relative="1" as="geometry" />
        </mxCell>
        <mxCell id="Cyqoco6zOhZ96ME_6kLh-3" value="nhập số nguyên dương" style="whiteSpace=wrap;html=1;" vertex="1" parent="1">
          <mxGeometry x="340" y="210" width="120" height="60" as="geometry" />
        </mxCell>
        <mxCell id="Cyqoco6zOhZ96ME_6kLh-9" value="" style="edgeStyle=orthogonalEdgeStyle;rounded=0;orthogonalLoop=1;jettySize=auto;html=1;" edge="1" parent="1" source="Cyqoco6zOhZ96ME_6kLh-5" target="Cyqoco6zOhZ96ME_6kLh-8">
          <mxGeometry relative="1" as="geometry" />
        </mxCell>
        <mxCell id="Cyqoco6zOhZ96ME_6kLh-11" value="" style="edgeStyle=orthogonalEdgeStyle;rounded=0;orthogonalLoop=1;jettySize=auto;html=1;" edge="1" parent="1" source="Cyqoco6zOhZ96ME_6kLh-5" target="Cyqoco6zOhZ96ME_6kLh-10">
          <mxGeometry relative="1" as="geometry" />
        </mxCell>
        <mxCell id="Cyqoco6zOhZ96ME_6kLh-5" value="&#xa;n &amp;lt;= 1?&#xa;&#xa;" style="rhombus;whiteSpace=wrap;html=1;" vertex="1" parent="1">
          <mxGeometry x="320" y="340" width="160" height="50" as="geometry" />
        </mxCell>
        <mxCell id="Cyqoco6zOhZ96ME_6kLh-13" value="" style="edgeStyle=orthogonalEdgeStyle;rounded=0;orthogonalLoop=1;jettySize=auto;html=1;" edge="1" parent="1" source="Cyqoco6zOhZ96ME_6kLh-8" target="Cyqoco6zOhZ96ME_6kLh-12">
          <mxGeometry relative="1" as="geometry" />
        </mxCell>
        <mxCell id="Cyqoco6zOhZ96ME_6kLh-8" value="&#xa;&quot;i = 2, is_prime = 1&#xa;&#xa;" style="whiteSpace=wrap;html=1;" vertex="1" parent="1">
          <mxGeometry x="90" y="470" width="120" height="60" as="geometry" />
        </mxCell>
        <mxCell id="Cyqoco6zOhZ96ME_6kLh-10" value="end" style="whiteSpace=wrap;html=1;" vertex="1" parent="1">
          <mxGeometry x="600" y="480" width="120" height="60" as="geometry" />
        </mxCell>
        <mxCell id="Cyqoco6zOhZ96ME_6kLh-15" value="" style="edgeStyle=orthogonalEdgeStyle;rounded=0;orthogonalLoop=1;jettySize=auto;html=1;" edge="1" parent="1" source="Cyqoco6zOhZ96ME_6kLh-12" target="Cyqoco6zOhZ96ME_6kLh-14">
          <mxGeometry relative="1" as="geometry" />
        </mxCell>
        <mxCell id="Cyqoco6zOhZ96ME_6kLh-17" value="" style="edgeStyle=orthogonalEdgeStyle;rounded=0;orthogonalLoop=1;jettySize=auto;html=1;" edge="1" parent="1" source="Cyqoco6zOhZ96ME_6kLh-12" target="Cyqoco6zOhZ96ME_6kLh-16">
          <mxGeometry relative="1" as="geometry" />
        </mxCell>
        <mxCell id="Cyqoco6zOhZ96ME_6kLh-12" value="&#xa;i &amp;lt;= n / 2?&#xa;&#xa;" style="rhombus;whiteSpace=wrap;html=1;" vertex="1" parent="1">
          <mxGeometry x="80" y="600" width="140" height="50" as="geometry" />
        </mxCell>
        <mxCell id="Cyqoco6zOhZ96ME_6kLh-31" value="" style="edgeStyle=orthogonalEdgeStyle;rounded=0;orthogonalLoop=1;jettySize=auto;html=1;" edge="1" parent="1" source="Cyqoco6zOhZ96ME_6kLh-14" target="Cyqoco6zOhZ96ME_6kLh-30">
          <mxGeometry relative="1" as="geometry" />
        </mxCell>
        <mxCell id="Cyqoco6zOhZ96ME_6kLh-33" value="" style="edgeStyle=orthogonalEdgeStyle;rounded=0;orthogonalLoop=1;jettySize=auto;html=1;" edge="1" parent="1" source="Cyqoco6zOhZ96ME_6kLh-14" target="Cyqoco6zOhZ96ME_6kLh-32">
          <mxGeometry relative="1" as="geometry" />
        </mxCell>
        <mxCell id="Cyqoco6zOhZ96ME_6kLh-14" value="&#xa;n % i == 0&#xa;&#xa;" style="whiteSpace=wrap;html=1;" vertex="1" parent="1">
          <mxGeometry x="-140" y="690" width="120" height="60" as="geometry" />
        </mxCell>
        <mxCell id="Cyqoco6zOhZ96ME_6kLh-19" value="" style="edgeStyle=orthogonalEdgeStyle;rounded=0;orthogonalLoop=1;jettySize=auto;html=1;" edge="1" parent="1" source="Cyqoco6zOhZ96ME_6kLh-16" target="Cyqoco6zOhZ96ME_6kLh-18">
          <mxGeometry relative="1" as="geometry" />
        </mxCell>
        <mxCell id="Cyqoco6zOhZ96ME_6kLh-21" value="" style="edgeStyle=orthogonalEdgeStyle;rounded=0;orthogonalLoop=1;jettySize=auto;html=1;" edge="1" parent="1" source="Cyqoco6zOhZ96ME_6kLh-16" target="Cyqoco6zOhZ96ME_6kLh-20">
          <mxGeometry relative="1" as="geometry" />
        </mxCell>
        <mxCell id="Cyqoco6zOhZ96ME_6kLh-16" value="&#xa;is_prime == 1&#xa;&#xa;" style="whiteSpace=wrap;html=1;" vertex="1" parent="1">
          <mxGeometry x="294" y="680" width="120" height="60" as="geometry" />
        </mxCell>
        <mxCell id="Cyqoco6zOhZ96ME_6kLh-18" value="&#xa;Là số nguyên tố&#xa;&#xa;" style="whiteSpace=wrap;html=1;" vertex="1" parent="1">
          <mxGeometry x="150" y="770" width="120" height="60" as="geometry" />
        </mxCell>
        <mxCell id="Cyqoco6zOhZ96ME_6kLh-20" value="&#xa;Không phải số nguyên tố&#xa;&#xa;" style="whiteSpace=wrap;html=1;" vertex="1" parent="1">
          <mxGeometry x="440" y="770" width="120" height="60" as="geometry" />
        </mxCell>
        <mxCell id="Cyqoco6zOhZ96ME_6kLh-22" value="yes" style="text;html=1;align=center;verticalAlign=middle;whiteSpace=wrap;rounded=0;" vertex="1" parent="1">
          <mxGeometry x="200" y="680" width="60" height="30" as="geometry" />
        </mxCell>
        <mxCell id="Cyqoco6zOhZ96ME_6kLh-23" value="yes" style="text;html=1;align=center;verticalAlign=middle;whiteSpace=wrap;rounded=0;" vertex="1" parent="1">
          <mxGeometry x="-40" y="585" width="60" height="30" as="geometry" />
        </mxCell>
        <mxCell id="Cyqoco6zOhZ96ME_6kLh-25" value="no" style="text;html=1;align=center;verticalAlign=middle;whiteSpace=wrap;rounded=0;" vertex="1" parent="1">
          <mxGeometry x="430" y="670" width="60" height="30" as="geometry" />
        </mxCell>
        <mxCell id="Cyqoco6zOhZ96ME_6kLh-26" value="no" style="text;html=1;align=center;verticalAlign=middle;whiteSpace=wrap;rounded=0;" vertex="1" parent="1">
          <mxGeometry x="260" y="585" width="60" height="30" as="geometry" />
        </mxCell>
        <mxCell id="Cyqoco6zOhZ96ME_6kLh-27" value="yes" style="text;html=1;align=center;verticalAlign=middle;whiteSpace=wrap;rounded=0;" vertex="1" parent="1">
          <mxGeometry x="220" y="320" width="60" height="30" as="geometry" />
        </mxCell>
        <mxCell id="Cyqoco6zOhZ96ME_6kLh-29" value="no" style="text;html=1;align=center;verticalAlign=middle;whiteSpace=wrap;rounded=0;" vertex="1" parent="1">
          <mxGeometry x="510" y="310" width="60" height="30" as="geometry" />
        </mxCell>
        <mxCell id="Cyqoco6zOhZ96ME_6kLh-30" value="&#xa;Không phải số nguyên tố&#xa;&#xa;" style="whiteSpace=wrap;html=1;" vertex="1" parent="1">
          <mxGeometry x="-300" y="780" width="120" height="60" as="geometry" />
        </mxCell>
        <mxCell id="Cyqoco6zOhZ96ME_6kLh-32" value="&#xa;i++&#xa;&#xa;" style="whiteSpace=wrap;html=1;" vertex="1" parent="1">
          <mxGeometry x="-10" y="780" width="120" height="60" as="geometry" />
        </mxCell>
        <mxCell id="Cyqoco6zOhZ96ME_6kLh-34" value="" style="endArrow=classic;html=1;rounded=0;entryX=0.393;entryY=0.827;entryDx=0;entryDy=0;entryPerimeter=0;exitX=0.647;exitY=-0.056;exitDx=0;exitDy=0;exitPerimeter=0;" edge="1" parent="1" source="Cyqoco6zOhZ96ME_6kLh-32" target="Cyqoco6zOhZ96ME_6kLh-12">
          <mxGeometry width="50" height="50" relative="1" as="geometry">
            <mxPoint x="70" y="760" as="sourcePoint" />
            <mxPoint x="120" y="710" as="targetPoint" />
          </mxGeometry>
        </mxCell>
        <mxCell id="Cyqoco6zOhZ96ME_6kLh-35" value="" style="endArrow=classic;html=1;rounded=0;exitX=1;exitY=0.75;exitDx=0;exitDy=0;" edge="1" parent="1" source="Cyqoco6zOhZ96ME_6kLh-30">
          <mxGeometry width="50" height="50" relative="1" as="geometry">
            <mxPoint x="70" y="860" as="sourcePoint" />
            <mxPoint x="190" y="1020" as="targetPoint" />
            <Array as="points">
              <mxPoint x="60" y="960" />
            </Array>
          </mxGeometry>
        </mxCell>
        <mxCell id="Cyqoco6zOhZ96ME_6kLh-36" value="" style="endArrow=classic;html=1;rounded=0;exitX=0.631;exitY=0.978;exitDx=0;exitDy=0;exitPerimeter=0;" edge="1" parent="1" source="Cyqoco6zOhZ96ME_6kLh-18">
          <mxGeometry width="50" height="50" relative="1" as="geometry">
            <mxPoint x="220" y="880" as="sourcePoint" />
            <mxPoint x="200" y="1020" as="targetPoint" />
          </mxGeometry>
        </mxCell>
        <mxCell id="Cyqoco6zOhZ96ME_6kLh-37" value="" style="endArrow=classic;html=1;rounded=0;exitX=0.631;exitY=0.978;exitDx=0;exitDy=0;exitPerimeter=0;" edge="1" parent="1" target="Cyqoco6zOhZ96ME_6kLh-38">
          <mxGeometry width="50" height="50" relative="1" as="geometry">
            <mxPoint x="480" y="830" as="sourcePoint" />
            <mxPoint x="230" y="1030" as="targetPoint" />
          </mxGeometry>
        </mxCell>
        <mxCell id="Cyqoco6zOhZ96ME_6kLh-38" value="End" style="ellipse;whiteSpace=wrap;html=1;" vertex="1" parent="1">
          <mxGeometry x="150" y="1010" width="120" height="80" as="geometry" />
        </mxCell>
        <mxCell id="Cyqoco6zOhZ96ME_6kLh-39" value="yes" style="text;html=1;align=center;verticalAlign=middle;whiteSpace=wrap;rounded=0;" vertex="1" parent="1">
          <mxGeometry x="-230" y="680" width="60" height="30" as="geometry" />
        </mxCell>
        <mxCell id="Cyqoco6zOhZ96ME_6kLh-40" value="no" style="text;html=1;align=center;verticalAlign=middle;whiteSpace=wrap;rounded=0;" vertex="1" parent="1">
          <mxGeometry x="-10" y="680" width="60" height="30" as="geometry" />
        </mxCell>
      </root>
    </mxGraphModel>
  </diagram>
</mxfile>
